REM DIRINDEX 1\2,1\3
REM DIRNAME folder01,folder02,folder03
TITLE ""
FILE "Disk1Track51.mp3" MP3
  TRACK 01 AUDIO
    TITLE "2:cjc052_0361"
    INDEX 01 00:00:00
  TRACK 02 AUDIO
    TITLE "2:cjc052_0362"
    INDEX 01 00:09:04
  TRACK 03 AUDIO
    TITLE "2:cjc052_0363"
    INDEX 01 00:15:52
  TRACK 04 AUDIO
    TITLE "2:cjc052_0364"
    INDEX 01 00:27:51
  TRACK 05 AUDIO
    TITLE "2:cjc052_0365"
    INDEX 01 00:39:07
  TRACK 06 AUDIO
    TITLE "0:"
    INDEX 01 00:48:55
